<svg width="629" height="629" viewBox="0 0 629 629" fill="none" xmlns="http://www.w3.org/2000/svg">
<rect width="629" height="629" transform="translate(0.000244141 3.05176e-05)" fill="white"/>
<path d="M588.674 301.113C591.35 355.925 577.536 410.282 549.014 457.166C520.492 504.05 478.573 541.308 428.666 564.132C378.76 586.956 323.158 594.298 269.038 585.209C214.918 576.12 164.765 551.019 125.052 513.144C85.3388 475.27 57.8899 426.361 46.2481 372.732C34.6063 319.104 39.3061 263.216 59.7409 212.285C80.1757 161.354 115.407 117.716 160.888 87.0062C206.368 56.2961 260.009 39.9229 314.887 40.0003L314.829 81.1753C268.183 81.1095 222.588 95.0267 183.93 121.13C145.271 147.234 115.324 184.326 97.9548 227.617C80.5852 270.909 76.5903 318.413 86.4859 363.998C96.3814 409.582 119.713 451.154 153.469 483.348C187.225 515.541 229.855 536.877 275.857 544.603C321.859 552.328 369.121 546.088 411.542 526.688C453.962 507.287 489.594 475.617 513.837 435.766C538.08 395.915 549.823 349.711 547.548 303.121L588.674 301.113Z" fill="black"/>
<rect x="225" y="183" width="180" height="30" rx="15" fill="black"/>
<rect x="285.5" y="303" width="119.5" height="30" rx="15" fill="black"/>
<rect x="225" y="447" width="264" height="30" rx="15" transform="rotate(-90 225 447)" fill="black"/>
<rect x="375" y="333" width="150" height="30" rx="15" transform="rotate(-90 375 333)" fill="black"/>
</svg>
